<svg width="25" height="25" viewBox="0 0 25 25" fill="none" xmlns="http://www.w3.org/2000/svg">
<path d="M16.4875 2.5083C19.8775 2.5083 22.1475 4.8883 22.1475 8.4283V16.5993C22.1475 20.1293 19.8775 22.5083 16.4875 22.5083H7.81746C4.42746 22.5083 2.14746 20.1293 2.14746 16.5993V8.4283C2.14746 4.8883 4.42746 2.5083 7.81746 2.5083H16.4875ZM15.1575 9.4793C14.8175 9.1383 14.2675 9.1383 13.9175 9.4793L12.1475 11.2583L10.3675 9.4793C10.0175 9.1383 9.46746 9.1383 9.12746 9.4793C8.78746 9.8193 8.78746 10.3793 9.12746 10.7183L10.9075 12.4993L9.12746 14.2693C8.78746 14.6193 8.78746 15.1693 9.12746 15.5083C9.29746 15.6783 9.52746 15.7693 9.74746 15.7693C9.97746 15.7693 10.1975 15.6783 10.3675 15.5083L12.1475 13.7393L13.9275 15.5083C14.0975 15.6893 14.3175 15.7693 14.5375 15.7693C14.7675 15.7693 14.9875 15.6783 15.1575 15.5083C15.4975 15.1693 15.4975 14.6193 15.1575 14.2793L13.3775 12.4993L15.1575 10.7183C15.4975 10.3793 15.4975 9.8193 15.1575 9.4793Z" fill="black"/>
</svg>
