<svg width="24" height="25" viewBox="0 0 24 25" fill="none" xmlns="http://www.w3.org/2000/svg">
<path fill-rule="evenodd" clip-rule="evenodd" d="M21.8926 21.8567H13.3926L13.3926 13.3567L21.8926 13.3567V21.8567ZM20.3926 20.3567V14.8567H14.8926V20.3567H20.3926Z" fill="white"/>
<path fill-rule="evenodd" clip-rule="evenodd" d="M9.64851 22.8119L1.43811 20.6119L3.63811 12.4015L11.8485 14.6015L9.64851 22.8119ZM8.58781 20.9747L10.0113 15.6621L4.69881 14.2386L3.27521 19.5512L8.58781 20.9747Z" fill="white"/>
<path fill-rule="evenodd" clip-rule="evenodd" d="M21.8926 10.8567L13.3926 10.8567L13.3926 2.3567L21.8926 2.3567V10.8567ZM20.3926 9.3567V3.8567L14.8926 3.8567V9.3567H20.3926Z" fill="white"/>
<path fill-rule="evenodd" clip-rule="evenodd" d="M10.8926 10.8567L2.39258 10.8567L2.39258 2.3567L10.8926 2.3567L10.8926 10.8567ZM9.39258 9.3567V3.8567L3.89258 3.8567L3.89258 9.3567H9.39258Z" fill="white"/>
</svg>
